<svg width="30" height="31" viewBox="0 0 30 31" fill="none" xmlns="http://www.w3.org/2000/svg">
<ellipse cx="14.9598" cy="15.5" rx="14.9598" ry="15.5" fill="#EAAE31"/>
<path d="M23.0271 14.2004C23.0271 15.3418 22.1034 16.2671 20.9639 16.2671C19.8245 16.2671 18.9008 15.3418 18.9008 14.2004C18.9008 13.059 18.7786 13.2703 19.8385 13.2703C23.2508 13.2703 23.0271 13.059 23.0271 14.2004Z" fill="#815F18"/>
<path d="M10.823 14.2004C10.823 15.3418 9.8993 16.2671 8.75984 16.2671C7.62038 16.2671 6.69667 15.3418 6.69667 14.2004C6.69667 13.059 6.5745 13.2703 7.63443 13.2703C11.0467 13.2703 10.823 13.059 10.823 14.2004Z" fill="#815F18"/>
<rect x="18.6545" y="13.2043" width="4.61977" height="0.301224" rx="0.150612" fill="#815F18" stroke="#815F18" stroke-width="0.301224"/>
<rect x="18.9557" y="10.693" width="4.01732" height="0.903673" rx="0.451836" fill="#815F18" stroke="#815F18" stroke-width="0.903673"/>
<mask id="path-6-inside-1_1103_8668" fill="white">
<path d="M6.29883 13.3549C6.29883 13.1886 6.43369 13.0537 6.60005 13.0537H10.9186C11.085 13.0537 11.2198 13.1886 11.2198 13.3549C11.2198 13.5213 11.085 13.6562 10.9186 13.6562H6.60005C6.43369 13.6562 6.29883 13.5213 6.29883 13.3549Z"/>
</mask>
<path d="M6.29883 13.3549C6.29883 13.1886 6.43369 13.0537 6.60005 13.0537H10.9186C11.085 13.0537 11.2198 13.1886 11.2198 13.3549C11.2198 13.5213 11.085 13.6562 10.9186 13.6562H6.60005C6.43369 13.6562 6.29883 13.5213 6.29883 13.3549Z" fill="#815F18"/>
<path d="M6.60005 13.0537V13.9931H10.9186V13.0537V12.1143H6.60005V13.0537ZM10.9186 13.6562V12.7168H6.60005V13.6562V14.5956H10.9186V13.6562ZM6.60005 13.6562V12.7168C6.9525 12.7168 7.23822 13.0025 7.23822 13.3549H6.29883H5.35943C5.35943 14.0401 5.91488 14.5956 6.60005 14.5956V13.6562ZM11.2198 13.3549H10.2804C10.2804 13.0025 10.5661 12.7168 10.9186 12.7168V13.6562V14.5956C11.6038 14.5956 12.1592 14.0401 12.1592 13.3549H11.2198ZM10.9186 13.0537V13.9931C10.5661 13.9931 10.2804 13.7074 10.2804 13.3549H11.2198H12.1592C12.1592 12.6698 11.6038 12.1143 10.9186 12.1143V13.0537ZM6.60005 13.0537V12.1143C5.91488 12.1143 5.35943 12.6698 5.35943 13.3549H6.29883H7.23822C7.23822 13.7074 6.9525 13.9931 6.60005 13.9931V13.0537Z" fill="#815F18" mask="url(#path-6-inside-1_1103_8668)"/>
<path d="M6.49609 11.4495C6.53062 11.3781 6.63168 11.0016 6.73613 10.5921C6.87867 10.0334 7.25412 9.56142 7.77107 9.30591L7.80229 9.29048C8.37234 9.00873 9.0461 9.0338 9.59363 9.35714C10.0578 9.63125 10.3822 10.0912 10.4846 10.6204L10.6297 11.3704" stroke="#815F18" stroke-width="0.939395" stroke-linecap="round"/>
<path d="M11.403 17.541L11.5446 18.2399C11.5987 18.5068 11.5813 18.7832 11.4942 19.0411L11.4787 19.0868C11.3365 19.5077 11.0087 19.8399 10.5896 19.9875C10.4353 20.0419 10.2728 20.0697 10.1092 20.0697H9.53418" stroke="#815F18" stroke-width="0.939395" stroke-linecap="round"/>
<path d="M11.417 19.4795C12.1994 19.9984 13.0553 20.4366 13.9584 20.6801C14.691 20.8776 15.4449 20.8922 16.1983 20.8833C16.6982 20.8773 17.8064 20.7897 18.299 20.6801C18.4591 20.6445 18.7423 20.5545 18.8969 20.4993" stroke="#815F18" stroke-width="0.939395" stroke-linecap="round"/>
</svg>
