<svg width="683" height="768" viewBox="0 0 683 768" fill="none" xmlns="http://www.w3.org/2000/svg">
<rect width="683" height="771" fill="#F8FAFE"/>
<path fill-rule="evenodd" clip-rule="evenodd" d="M279.756 528.076L280.247 528.072L280.499 528.071C280.251 528.071 280.003 528.073 279.756 528.076Z" fill="#0082B9"/>
<path fill-rule="evenodd" clip-rule="evenodd" d="M29.743 87.0413C29.3326 80.98 33.9136 75.7338 39.9749 75.3234L299.66 57.7433C305.721 57.333 310.967 61.9139 311.378 67.9752L316.242 139.823C316.291 140.552 315.731 141.177 315.002 141.226C282.475 143.428 257.892 171.582 260.094 204.109C262.296 236.636 290.449 261.219 322.976 259.017C323.705 258.968 324.344 259.512 324.394 260.241L329.198 331.203C329.608 337.264 325.027 342.51 318.966 342.921L247.131 347.784C246.887 347.8 246.676 347.615 246.66 347.371C244.458 314.844 216.305 290.261 183.778 292.463C151.251 294.665 126.668 322.818 128.87 355.345C128.887 355.589 128.703 355.801 128.458 355.818L59.2808 360.501C53.2195 360.911 47.9733 356.33 47.5629 350.269L29.743 87.0413Z" fill="#EAAE31"/>
<path d="M71.3084 143.47L63.2019 143.182C62.5271 144.111 61.846 144.972 61.1588 145.762C60.4716 146.553 59.6718 147.34 58.7594 148.122L59.3057 156.154L49.3102 159.232L45.5589 152.075C44.4002 151.981 43.2619 151.802 42.144 151.537C41.0262 151.271 39.9287 150.92 38.8516 150.483L32.2841 155.192L24.7375 147.951L28.8347 141.021C28.3712 139.911 28.0102 138.849 27.7515 137.834C27.4928 136.819 27.271 135.744 27.0859 134.611L19.7141 131.226L22.163 120.907L30.2694 121.196C30.9443 120.266 31.6253 119.406 32.3125 118.615C32.9998 117.825 33.7996 117.038 34.712 116.255L34.1657 108.223L44.1611 105.145L47.9125 112.303C49.0712 112.396 50.2094 112.576 51.3273 112.841C52.4452 113.106 53.5427 113.458 54.6197 113.895L61.1873 109.186L68.7339 116.427L64.6367 123.357C65.1001 124.466 65.4612 125.528 65.7198 126.543C65.9785 127.559 66.2004 128.633 66.3855 129.767L73.7573 133.152L71.3084 143.47ZM57.0545 134.638C57.728 131.8 57.2941 129.131 55.7529 126.631C54.2117 124.13 52.0222 122.543 49.1845 121.87C46.3469 121.196 43.6778 121.63 41.1775 123.172C38.6771 124.713 37.0903 126.902 36.4168 129.74C35.7434 132.578 36.1773 135.247 37.7185 137.747C39.2597 140.247 41.4491 141.834 44.2868 142.508C47.1245 143.181 49.7935 142.747 52.2939 141.206C54.7942 139.665 56.3811 137.475 57.0545 134.638ZM139.021 110.762L127.635 110.513C126.772 111.852 125.827 113.059 124.801 114.132C123.774 115.205 122.644 116.232 121.413 117.211L122.318 128.326L108.221 132.61L102.957 122.641C101.368 122.446 99.7998 122.164 98.252 121.797C96.7041 121.43 95.1767 120.976 93.6697 120.437L84.4874 126.978L73.819 116.816L79.6215 107.293C78.9613 105.865 78.4137 104.44 77.9787 103.02C77.5437 101.6 77.2416 100.098 77.0726 98.5133L66.7888 93.6202L70.2172 79.1738L81.603 79.4233C82.4659 78.084 83.4107 76.8776 84.4376 75.8042C85.4644 74.7308 86.5936 73.7044 87.8252 72.725L86.9205 61.6102L101.017 57.3257L106.281 67.295C107.87 67.4903 109.438 67.7717 110.986 68.139C112.534 68.5063 114.061 68.9597 115.568 69.499L124.751 62.9581L135.419 73.1199L129.617 82.6429C130.277 84.0713 130.824 85.4956 131.259 86.9159C131.694 88.3363 131.996 89.8385 132.165 91.4228L142.449 96.3159L139.021 110.762ZM120.097 98.6414C121.118 94.3418 120.48 90.3301 118.185 86.6062C115.889 82.8823 112.592 80.5101 108.292 79.4897C103.993 78.4694 99.9811 79.1069 96.2572 81.4023C92.5333 83.6977 90.1611 86.9952 89.1407 91.2947C88.1204 95.5943 88.7579 99.606 91.0533 103.33C93.3487 107.054 96.6462 109.426 100.946 110.446C105.245 111.467 109.257 110.829 112.981 108.534C116.705 106.238 119.077 102.941 120.097 98.6414Z" fill="#0082B9"/>
<path d="M97.4258 158.7L94.0913 156.756C93.5991 156.994 93.12 157.201 92.654 157.378C92.1879 157.555 91.6755 157.705 91.1169 157.828L89.5391 161.319L84.6551 160.361L84.6921 156.516C84.2272 156.216 83.7902 155.885 83.3811 155.522C82.972 155.159 82.5908 154.765 82.2375 154.34L78.4241 154.837L76.8884 150.103L80.1655 148.118C80.2207 147.549 80.3082 147.022 80.4281 146.538C80.548 146.054 80.6967 145.554 80.8741 145.037L78.5441 141.959L81.8924 138.183L85.2269 140.127C85.719 139.889 86.1981 139.682 86.6642 139.505C87.1302 139.328 87.6426 139.178 88.2013 139.055L89.7791 135.564L94.6631 136.522L94.626 140.367C95.0909 140.667 95.5279 140.998 95.937 141.361C96.3461 141.724 96.7273 142.118 97.0806 142.544L100.894 142.046L102.43 146.78L99.1527 148.765C99.0975 149.334 99.01 149.861 98.8901 150.345C98.7702 150.829 98.6215 151.329 98.444 151.846L100.774 154.924L97.4258 158.7ZM93.4354 151.79C94.3562 150.751 94.7746 149.534 94.6908 148.139C94.607 146.744 94.0458 145.586 93.0073 144.665C91.9688 143.744 90.752 143.326 89.3567 143.41C87.9615 143.494 86.8035 144.055 85.8827 145.093C84.962 146.132 84.5435 147.349 84.6273 148.744C84.7112 150.139 85.2723 151.297 86.3108 152.218C87.3493 153.139 88.5662 153.557 89.9614 153.473C91.3566 153.389 92.5146 152.828 93.4354 151.79Z" fill="#0082B9"/>
<path d="M659.518 67.9979C659.695 61.9254 654.916 56.8588 648.844 56.6815L388.675 49.0833C382.603 48.906 377.536 53.685 377.359 59.7575L375.257 131.739C375.235 132.469 374.618 133.037 373.887 133.016C341.3 132.064 314.111 157.711 313.159 190.298C312.207 222.885 337.853 250.074 370.441 251.026C371.171 251.047 371.755 251.651 371.733 252.381L369.657 323.475C369.48 329.548 374.259 334.614 380.331 334.792L451.412 336.868C451.657 336.875 451.861 336.682 451.867 336.437C452.819 303.85 480.008 278.203 512.595 279.155C545.183 280.107 570.829 307.296 569.877 339.883C569.869 340.128 570.061 340.333 570.306 340.34L640.5 342.39C646.572 342.567 651.639 337.788 651.816 331.716L659.518 67.9979Z" fill="#58B24D"/>
<path d="M187.56 348.752C154.995 347.211 127.347 372.361 125.806 404.926C125.796 405.171 125.588 405.36 125.344 405.348L56.0851 402.072C50.0168 401.785 44.8647 406.471 44.5776 412.539L31.228 694.695C30.9409 700.763 35.6275 705.916 41.6958 706.203L72.382 707.655L112.416 709.549L230.078 715.116L264.791 716.758L301.684 718.503C307.753 718.791 312.905 714.104 313.192 708.036L317.035 626.804C317.059 626.3 317.497 625.917 318 625.952C318.43 625.982 318.861 626.006 319.294 626.027C351.859 627.568 379.507 602.417 381.048 569.852C382.588 537.288 357.438 509.639 324.873 508.099L324.622 508.087L324.131 508.069L323.8 508.057L323.411 508.047L323.095 508.04C322.854 508.037 322.664 507.835 322.675 507.595L326.542 425.88C326.829 419.812 322.142 414.66 316.074 414.372L244.155 410.97C243.911 410.958 243.722 410.75 243.735 410.506C245.275 377.941 220.125 350.292 187.56 348.752Z" fill="#3492BA"/>
<path d="M568.082 396.382C567.837 396.391 567.632 396.199 567.624 395.954C566.441 363.375 539.07 337.922 506.49 339.105C473.91 340.288 448.458 367.659 449.641 400.239C449.651 400.483 449.46 400.689 449.215 400.698L378.151 403.279C372.08 403.499 367.337 408.6 367.557 414.671L370.505 495.838C370.525 496.398 371.006 496.828 371.565 496.796L372.161 496.766L372.758 496.742C405.338 495.559 432.709 521.011 433.892 553.591C435.075 586.17 409.623 613.541 377.043 614.724C376.644 614.739 376.248 614.749 375.851 614.755C375.289 614.764 374.84 615.23 374.861 615.791L377.808 696.956C378.028 703.027 383.129 707.77 389.2 707.55L426.11 706.209L460.839 704.948L578.556 700.673L593.769 700.121L649.308 698.104C655.379 697.884 660.122 692.783 659.901 686.712L649.651 404.427C649.43 398.356 644.33 393.613 638.259 393.834L568.082 396.382Z" fill="#D04245"/>
<path d="M516.563 627.367C516.563 627.367 489.91 665.478 445.898 628.192" stroke="#005274" stroke-width="10.4164" stroke-linecap="round"/>
<mask id="mask0_916_7809" style="mask-type:alpha" maskUnits="userSpaceOnUse" x="367" y="339" width="293" height="369">
<path d="M568.082 396.383C567.837 396.392 567.632 396.2 567.624 395.955C566.441 363.376 539.07 337.923 506.49 339.106C473.91 340.289 448.458 367.66 449.641 400.24C449.651 400.484 449.46 400.69 449.216 400.699L378.151 403.28C372.08 403.5 367.337 408.601 367.557 414.672L370.505 495.839C370.525 496.399 371.006 496.829 371.565 496.797L372.161 496.767L372.758 496.743C405.338 495.559 432.709 521.012 433.892 553.592C435.075 586.171 409.623 613.542 377.043 614.725C376.645 614.74 376.248 614.75 375.851 614.756C375.289 614.765 374.84 615.231 374.861 615.792L377.808 696.957C378.028 703.028 383.129 707.771 389.2 707.55L426.11 706.21L460.839 704.949L578.556 700.674L593.769 700.122L649.308 698.105C655.379 697.885 660.122 692.784 659.902 686.713L649.651 404.428C649.431 398.357 644.33 393.614 638.259 393.835L568.082 396.383Z" fill="#D04245"/>
</mask>
<g mask="url(#mask0_916_7809)">
<path d="M568.768 641.903C565.967 656.522 563.697 672.407 562.279 689.505C561.158 703.043 560.689 716.082 560.694 728.52C560.695 730.846 559.174 732.949 556.867 733.243C556.235 733.324 555.542 733.389 554.795 733.429C551.134 733.63 548.116 732.962 543.969 732.049" stroke="#005274" stroke-width="10" stroke-miterlimit="10" stroke-linecap="round"/>
<path d="M525.241 637.977C521.204 652.899 517.432 668.582 514.049 685.037C511.436 697.754 509.191 710.217 507.28 722.407C506.873 725 504.612 726.919 501.998 726.68C498.557 726.367 494.515 725.745 490 724.585" stroke="#005274" stroke-width="10" stroke-miterlimit="10" stroke-linecap="round"/>
</g>
<rect width="162.497" height="162.497" rx="31.2493" transform="matrix(-0.989345 -0.145589 -0.145589 0.989345 647.423 539.658)" fill="#0082B9"/>
<path d="M594.072 580.24C593.009 578.867 590.49 575.993 586.242 574.303C581.752 572.52 577.809 573.062 576.129 573.388" stroke="#005274" stroke-width="6.24987" stroke-miterlimit="10" stroke-linecap="round"/>
<path d="M529.428 568.781C527.863 567.964 524.332 566.365 519.572 566.325C514.534 566.286 510.921 568.008 509.416 568.835" stroke="#005274" stroke-width="6.24987" stroke-miterlimit="10" stroke-linecap="round"/>
<path d="M574.096 608.169C568.147 607.294 564.034 601.761 564.909 595.812C565.785 589.862 571.317 585.749 577.267 586.625C583.216 587.5 587.329 593.033 586.454 598.982C585.578 604.932 580.046 609.045 574.096 608.169Z" fill="#005274"/>
<path d="M584.209 593.016C584.856 593.21 586.651 593.652 588.676 592.909C589.882 592.466 590.692 591.777 591.158 591.314" stroke="#005274" stroke-width="4.16658" stroke-miterlimit="10" stroke-linecap="round"/>
<path d="M582.707 593.217C583.271 592.846 584.762 591.748 585.472 589.704C585.894 588.493 585.884 587.429 585.825 586.778" stroke="#005274" stroke-width="4.16658" stroke-miterlimit="10" stroke-linecap="round"/>
<path d="M522.313 599.286C516.364 598.411 512.251 592.878 513.126 586.929C514.002 580.98 519.534 576.866 525.484 577.742C531.433 578.617 535.546 584.15 534.671 590.099C533.795 596.049 528.263 600.162 522.313 599.286Z" fill="#005274"/>
<path d="M515.344 584.199C514.694 584.402 512.911 584.859 510.87 584.127C509.661 583.695 508.843 583.009 508.378 582.554" stroke="#005274" stroke-width="4.16658" stroke-miterlimit="10" stroke-linecap="round"/>
<path d="M516.844 584.387C516.279 584.016 514.788 582.933 514.047 580.897C513.615 579.693 513.618 578.62 513.669 577.974" stroke="#005274" stroke-width="4.16658" stroke-miterlimit="10" stroke-linecap="round"/>
<path d="M555.924 610.525C553.063 613.613 541.628 618.19 534.417 607.939" stroke="#005274" stroke-width="5.20822" stroke-linecap="round"/>
<path d="M475.712 621.994L559.764 676.453" stroke="#58B24D" stroke-width="16.2487" stroke-linecap="round"/>
<circle cx="422.237" cy="589.238" r="56.8703" transform="rotate(-51.9685 422.237 589.238)" fill="#F8FAFE" stroke="#58B24D" stroke-width="16.2487"/>
<path d="M412.322 599.702L450.37 609.368" stroke="#DCD3D3" stroke-opacity="0.36" stroke-width="10" stroke-linecap="round"/>
<path d="M393.431 573.264L423.841 580.989" stroke="#DCD3D3" stroke-opacity="0.36" stroke-width="10" stroke-linecap="round"/>
<mask id="mask1_916_7809" style="mask-type:alpha" maskUnits="userSpaceOnUse" x="31" y="348" width="351" height="371">
<path d="M187.561 348.751C154.996 347.21 127.348 372.36 125.807 404.925C125.797 405.17 125.589 405.359 125.345 405.347L56.0861 402.071C50.0178 401.784 44.8657 406.47 44.5785 412.539L31.2289 694.694C30.9418 700.762 35.6285 705.915 41.6968 706.202L72.383 707.654L112.417 709.548L230.079 715.115L264.792 716.757L301.685 718.502C307.754 718.79 312.906 714.103 313.193 708.035L317.036 626.803C317.06 626.299 317.498 625.916 318.001 625.951C318.431 625.981 318.862 626.005 319.295 626.026C351.86 627.567 379.508 602.416 381.049 569.851C382.589 537.287 357.439 509.638 324.874 508.098L324.623 508.087L324.132 508.068L323.801 508.056L323.412 508.046L323.096 508.039C322.855 508.036 322.665 507.834 322.676 507.594L326.543 425.879C326.83 419.811 322.143 414.659 316.075 414.371L244.156 410.969C243.912 410.957 243.723 410.749 243.736 410.505C245.276 377.94 220.126 350.291 187.561 348.751Z" fill="#0082B9"/>
</mask>
<g mask="url(#mask1_916_7809)">
<path d="M131.422 625.702C132.091 641.171 132.021 657.863 130.891 675.674C130.044 688.993 128.666 701.765 126.924 713.925C126.4 717.588 128.313 721.281 131.941 722.012C135.678 722.773 138.885 722.542 143.292 722.231" stroke="#7C282A" stroke-width="10" stroke-miterlimit="10" stroke-linecap="round"/>
<path d="M176.812 628.252C178.707 644.22 180.214 660.932 181.204 678.378C181.87 690.144 182.276 701.668 182.45 712.941C182.535 718.483 186.677 723.225 192.22 723.172C194.601 723.149 197.188 723.016 199.964 722.722" stroke="#7C282A" stroke-width="10" stroke-miterlimit="10" stroke-linecap="round"/>
</g>
<path d="M85.6857 532.722C91.032 522.66 101.275 516.151 112.655 515.584L181.296 512.165C192.928 511.586 203.974 517.301 210.221 527.131L246.109 583.608C252.355 593.438 252.838 605.866 247.373 616.151L215.126 676.841C209.78 686.903 199.536 693.412 188.156 693.979L119.516 697.398C107.884 697.977 96.8373 692.262 90.5909 682.432L54.7027 625.955C48.4563 616.125 47.9734 603.697 53.4383 593.412L85.6857 532.722Z" fill="#D04245"/>
<rect x="124.15" y="504.207" width="44.1914" height="7.58404" rx="3.79202" transform="rotate(-8.49868 124.15 504.207)" fill="#B54C1C"/>
<path d="M126.088 497.206C124.525 486.746 131.738 477 142.198 475.437C152.658 473.874 162.404 481.086 163.967 491.546L164.948 498.109L127.069 503.769L126.088 497.206Z" fill="#FF712F"/>
<rect x="152.405" y="478.63" width="16.3348" height="6.79867" rx="3.39934" transform="rotate(81.5013 152.405 478.63)" fill="#B54C1C"/>
<rect x="140.423" y="482.78" width="4.53245" height="11.6677" rx="2.26623" transform="rotate(-8.49868 140.423 482.78)" fill="#FFA479"/>
<rect x="153.877" y="480.77" width="3.39934" height="11.6677" rx="1.69967" transform="rotate(-8.49868 153.877 480.77)" fill="#FFA479"/>
<path d="M75.7764 628.71C75.7764 628.71 75.1895 678.404 158.411 654.891" stroke="#7C282A" stroke-width="12.9454" stroke-linecap="round"/>
<path d="M114.824 560.76C121.257 562.24 134.005 566.081 134.005 566.081" stroke="#7C282A" stroke-width="6.4727" stroke-miterlimit="10" stroke-linecap="round"/>
<path d="M189.802 557.572C183.518 559.593 171.141 564.502 171.141 564.502" stroke="#7C282A" stroke-width="6.4727" stroke-miterlimit="10" stroke-linecap="round"/>
<path d="M124.589 602.837C131.331 602.55 136.564 596.852 136.278 590.11C135.991 583.368 130.293 578.135 123.551 578.422C116.809 578.708 111.576 584.406 111.862 591.148C112.149 597.89 117.847 603.123 124.589 602.837Z" fill="#7C282A"/>
<path d="M183.418 598.934C190.16 598.647 195.394 592.949 195.107 586.207C194.82 579.465 189.123 574.232 182.381 574.518C175.638 574.805 170.405 580.503 170.692 587.245C170.978 593.987 176.676 599.22 183.418 598.934Z" fill="#7C282A"/>
<path d="M144.702 608.922C148.094 612.209 161.185 616.647 168.645 604.725" stroke="#7C282A" stroke-width="5.39391" stroke-linecap="round"/>
<path d="M138.375 614.075C140.6 613.521 145.789 609.266 142.791 603.132" stroke="#7C282A" stroke-width="5.39" stroke-linecap="round"/>
<path d="M230.261 619.409L256.484 643.985" stroke="#7C282A" stroke-width="12.9454" stroke-linecap="round"/>
<path d="M261.459 602.783L191.366 600.877C191.037 600.868 190.735 601.06 190.604 601.362L157.476 677.625C157.248 678.15 157.623 678.739 158.195 678.755L227.457 680.639C227.783 680.647 228.083 680.459 228.216 680.16L262.175 603.919C262.409 603.394 262.034 602.799 261.459 602.783Z" fill="#FCFCFD" stroke="#FCFCFD" stroke-width="3.23635" stroke-linecap="round"/>
<path d="M246.642 648.716L256.076 644.562" stroke="#7C282A" stroke-width="12.9454" stroke-linecap="round"/>
<path d="M92.6013 252C92.6013 252 81.4468 276.968 99.6556 321.612" stroke="#286D20" stroke-width="10" stroke-linecap="round"/>
<mask id="mask2_916_7809" style="mask-type:alpha" maskUnits="userSpaceOnUse" x="313" y="49" width="347" height="294">
<path d="M659.518 67.9979C659.695 61.9254 654.916 56.8588 648.844 56.6815L388.675 49.0833C382.603 48.906 377.536 53.685 377.359 59.7575L375.257 131.739C375.235 132.469 374.618 133.037 373.887 133.016C341.3 132.064 314.111 157.711 313.159 190.298C312.207 222.885 337.853 250.074 370.441 251.026C371.171 251.047 371.755 251.651 371.733 252.381L369.657 323.475C369.48 329.548 374.259 334.614 380.331 334.792L451.412 336.868C451.657 336.875 451.861 336.682 451.867 336.437C452.819 303.85 480.008 278.203 512.595 279.155C545.183 280.107 570.829 307.296 569.877 339.883C569.869 340.128 570.061 340.333 570.306 340.34L640.5 342.39C646.572 342.567 651.639 337.788 651.816 331.716L659.518 67.9979Z" fill="#58B24D"/>
</mask>
<g mask="url(#mask2_916_7809)">
<rect x="394.108" y="86" width="216" height="144" rx="8" transform="rotate(2.82919 394.108 86)" fill="white"/>
<rect x="506.513" y="147" width="9.09589" height="6.96001" transform="rotate(2.7768 506.513 147)" fill="#0082B9"/>
<rect x="505.788" y="161.957" width="9.09589" height="6.96001" transform="rotate(2.7768 505.788 161.957)" fill="#EAAE31"/>
<rect x="505.063" y="176.912" width="9.09589" height="6.96001" transform="rotate(2.7768 505.063 176.912)" fill="#0082B9"/>
<rect x="504.337" y="191.867" width="9.09589" height="6.96001" transform="rotate(2.7768 504.337 191.867)" fill="#EAAE31"/>
<rect x="520.141" y="147.661" width="69.3562" height="6.96001" transform="rotate(2.7768 520.141 147.661)" fill="#D04245"/>
<rect x="519.416" y="162.618" width="69.3562" height="6.96001" transform="rotate(2.7768 519.416 162.618)" fill="#58B24D"/>
<rect x="518.69" y="177.573" width="69.3562" height="6.96001" transform="rotate(2.7768 518.69 177.573)" fill="#D04245"/>
<rect x="517.965" y="192.529" width="69.3562" height="6.96001" transform="rotate(2.7768 517.965 192.529)" fill="#58B24D"/>
<path d="M393.713 93.9903C393.931 89.5774 397.685 86.1768 402.098 86.3949L601.854 96.2666C606.267 96.4847 609.668 100.239 609.45 104.652L608.782 118.158L393.045 107.496L393.713 93.9903Z" fill="#D04245"/>
<path d="M452.748 214.125C462.46 212.848 471.366 208.052 477.777 200.645C484.188 193.239 487.658 183.738 487.53 173.943C487.401 164.148 483.684 154.741 477.081 147.505C470.478 140.269 461.45 135.708 451.708 134.685C441.966 133.663 432.188 136.251 424.227 141.958C416.266 147.666 410.676 156.096 408.517 165.651C406.358 175.205 407.78 185.22 412.513 193.796C417.247 202.372 424.963 208.913 434.198 212.178L447.533 174.467L452.748 214.125Z" fill="#EBEBEB"/>
<path d="M408.211 181.797C409.706 189.818 413.618 197.19 419.423 202.923C425.227 208.657 432.646 212.479 440.684 213.876C448.723 215.273 456.996 214.179 464.394 210.739C471.793 207.3 477.963 201.681 482.077 194.635C486.191 187.589 488.051 179.454 487.41 171.32C486.768 163.187 483.654 155.444 478.486 149.131C473.319 142.817 466.344 138.235 458.497 135.999C450.651 133.762 442.308 133.979 434.589 136.619L447.533 174.467L408.211 181.797Z" fill="#0082B9"/>
<path d="M605.396 258.146C602.608 273.742 600.313 290.714 598.82 309.015C597.613 323.828 597.058 338.102 596.976 351.717C596.964 353.71 595.731 355.457 593.805 355.712C593.073 355.809 592.243 355.882 591.329 355.906C587.844 356.004 584.979 355.19 581.041 354.077" stroke="#9B6A05" stroke-width="10" stroke-miterlimit="10" stroke-linecap="round"/>
<path d="M568.599 262.644C564.74 278.547 561.131 295.28 557.888 312.86C555.328 326.753 553.133 340.374 551.269 353.703C550.948 355.992 549.079 357.585 546.854 357.279C543.489 356.817 539.491 355.977 535 354.478" stroke="#9B6A05" stroke-width="10" stroke-miterlimit="10" stroke-linecap="round"/>
<path d="M556.992 251.658C556.992 251.658 515.906 248.024 503.969 202.19" stroke="#9B6A05" stroke-width="10" stroke-linecap="round"/>
<path d="M613.908 166.658C609.226 152.395 590.45 149.264 581.394 161.236L498.798 270.428C490.362 281.58 496.783 297.704 510.576 300.003L635.871 320.895C649.664 323.195 660.968 310.027 656.607 296.742L613.908 166.658Z" fill="#EAAE31"/>
<path d="M618.447 221.615C617.562 220.427 615.46 217.934 611.864 216.424C608.064 214.829 604.691 215.228 603.253 215.478" stroke="#9B6A05" stroke-width="5.5814" stroke-miterlimit="10" stroke-linecap="round"/>
<path d="M574.809 210.788C573.487 210.065 570.502 208.643 566.442 208.531C562.145 208.416 559.035 209.826 557.738 210.507" stroke="#9B6A05" stroke-width="5.5814" stroke-miterlimit="10" stroke-linecap="round"/>
<path d="M601.87 245.265C596.809 244.421 593.391 239.635 594.235 234.574C595.078 229.514 599.865 226.095 604.925 226.939C609.986 227.783 613.404 232.569 612.56 237.63C611.717 242.69 606.93 246.108 601.87 245.265Z" fill="#9B6A05"/>
<path d="M564.267 237.915C559.206 237.071 555.788 232.285 556.632 227.224C557.475 222.164 562.262 218.746 567.322 219.589C572.383 220.433 575.801 225.22 574.957 230.28C574.114 235.341 569.327 238.759 564.267 237.915Z" fill="#9B6A05"/>
<path d="M589.235 252.181C586.745 254.768 576.916 258.486 570.932 249.624" stroke="#9B6A05" stroke-width="4.65116" stroke-linecap="round"/>
<path d="M629.835 257C629.835 257 637.234 283.327 612.717 324.842" stroke="#9B6A05" stroke-width="10" stroke-linecap="round"/>
</g>
<path d="M210.618 129.084C212.98 138.591 218.749 146.9 226.83 152.436C234.911 157.972 244.742 160.351 254.46 159.121C264.178 157.891 273.107 153.137 279.553 145.762C286 138.387 289.516 128.903 289.435 119.107C289.355 109.312 285.682 99.8871 279.115 92.6193C272.547 85.3515 263.541 80.7462 253.804 79.6766C244.067 78.6071 234.276 81.1476 226.288 86.8165C218.299 92.4854 212.669 100.888 210.464 110.433L249.437 119.437L210.618 129.084Z" fill="white"/>
<path d="M237.726 81.1905C229.925 83.5792 223.04 88.2964 217.996 94.7094C212.953 101.122 209.99 108.924 209.507 117.069C209.024 125.213 211.043 133.311 215.293 140.275C219.543 147.24 225.822 152.738 233.286 156.032C240.75 159.326 249.043 160.259 257.053 158.706C265.062 157.153 272.405 153.187 278.097 147.341C283.788 141.496 287.556 134.049 288.895 126.001C290.234 117.953 289.079 109.687 285.586 102.314L249.437 119.438L237.726 81.1905Z" fill="#0082B9"/>
<mask id="mask3_916_7809" style="mask-type:alpha" maskUnits="userSpaceOnUse" x="29" y="57" width="301" height="304">
<path fill-rule="evenodd" clip-rule="evenodd" d="M29.743 87.0413C29.3326 80.98 33.9136 75.7338 39.9749 75.3234L299.66 57.7433C305.721 57.333 310.967 61.9139 311.378 67.9752L316.242 139.823C316.291 140.552 315.731 141.177 315.002 141.226C282.475 143.428 257.892 171.582 260.094 204.109C262.296 236.636 290.449 261.219 322.976 259.017C323.705 258.968 324.344 259.512 324.394 260.241L329.198 331.203C329.608 337.264 325.027 342.51 318.966 342.921L247.131 347.784C246.887 347.8 246.676 347.615 246.66 347.371C244.458 314.844 216.305 290.261 183.778 292.463C151.251 294.665 126.668 322.818 128.87 355.345C128.887 355.589 128.703 355.801 128.458 355.818L59.2808 360.501C53.2195 360.911 47.9733 356.33 47.5629 350.269L29.743 87.0413Z" fill="#EAAE31"/>
</mask>
<g mask="url(#mask3_916_7809)">
<path d="M136.706 264.994C138.429 279.179 139.561 294.542 139.796 311.011C139.981 324.051 139.574 336.57 138.753 348.482C138.599 350.71 139.918 352.824 142.108 353.257C142.709 353.376 143.368 353.485 144.08 353.571C147.574 354.004 150.508 353.562 154.54 352.96" stroke="#286D20" stroke-width="8.4" stroke-miterlimit="10" stroke-linecap="round"/>
<circle cx="158.477" cy="235.214" r="79" transform="rotate(-4.45043 158.477 235.214)" fill="#58B24D"/>
<path d="M174.437 244C172.395 246.731 166.05 251.101 157 247.191" stroke="#286D20" stroke-width="4" stroke-linecap="round"/>
<path d="M135.387 197C134.525 198.428 132.441 201.447 128.577 203.529C124.494 205.728 120.673 205.647 119.035 205.522" stroke="#286D20" stroke-width="6" stroke-miterlimit="10" stroke-linecap="round"/>
<path d="M181.089 195.624C182.642 194.943 186.129 193.643 190.69 193.918C195.519 194.211 198.866 196.098 200.253 196.988" stroke="#286D20" stroke-width="6" stroke-miterlimit="10" stroke-linecap="round"/>
<path d="M139.794 232.609C144.474 232.244 147.973 228.155 147.608 223.475C147.244 218.794 143.155 215.295 138.474 215.66C133.794 216.024 130.295 220.113 130.66 224.794C131.024 229.474 135.113 232.973 139.794 232.609Z" fill="#286D20"/>
<path d="M192.794 227.609C197.474 227.244 200.973 223.155 200.608 218.475C200.244 213.794 196.155 210.295 191.474 210.66C186.794 211.024 183.295 215.113 183.66 219.794C184.024 224.474 188.113 227.973 192.794 227.609Z" fill="#286D20"/>
<path d="M188.207 204.816C178.796 205.548 171.836 213.55 172.539 222.585C173.242 231.621 181.357 238.449 190.768 237.716C200.179 236.984 207.14 228.982 206.436 219.947C205.733 210.912 197.618 204.083 188.207 204.816Z" stroke="#286D20" stroke-width="4"/>
<circle cx="18.5" cy="18.5" r="16.5" transform="matrix(-0.996985 0.0775966 0.0775966 0.996985 154.232 206.457)" stroke="#286D20" stroke-width="4"/>
<line x1="173.575" y1="223.006" x2="154.632" y2="224.48" stroke="#286D20" stroke-width="4"/>
<path d="M101.619 226.912C100.52 227.02 99.7169 227.998 99.8255 229.097C99.9342 230.197 100.913 231 102.013 230.892L101.816 228.902L101.619 226.912ZM121.92 226.929L121.723 224.938L101.619 226.912L101.816 228.902L102.013 230.892L122.117 228.919L121.92 226.929Z" fill="#286D20"/>
</g>
<path d="M619 631.5C618 638.5 612 672 543 669" stroke="#005274" stroke-width="12" stroke-linecap="round"/>
<path d="M222.054 223.741C222.054 223.741 273.241 253.282 268.241 188.282" stroke="#286D20" stroke-width="10" stroke-linecap="round"/>
<ellipse cx="224.5" cy="229.5" rx="12.5" ry="24.5" fill="#58B24D"/>
</svg>
