<svg width="88" height="91" viewBox="0 0 88 91" fill="none" xmlns="http://www.w3.org/2000/svg">
<g clip-path="url(#clip0_397_5726)">
<path d="M67.9069 5.79354C69.0401 6.44696 70.1733 7.10039 71.263 7.84093C73.05 9.06065 74.7934 10.4111 76.3625 11.8486C76.7548 12.2406 77.365 13.0683 77.8445 13.2861C71.5245 10.7596 64.6379 11.6743 58.6666 14.7237C58.4923 14.8108 56.6181 15.9869 56.4874 15.9434C53.3056 13.6346 49.5136 12.5891 45.7216 11.805C41.7989 10.9774 37.7454 10.3239 34.0406 8.62504C31.687 7.536 29.0718 6.01135 28.1565 3.48478C34.9995 0.609721 42.4963 -0.479317 49.8187 0.217667C56.1387 0.827528 62.3279 2.70067 67.8633 5.79354H67.9069Z" fill="#136DA5"/>
<path d="M81.8108 54.9751H81.898C82.6389 54.8879 83.4671 54.7573 84.2952 54.583C83.5542 54.6701 82.7261 54.8008 81.8108 54.9751Z" fill="white"/>
<path d="M39.4453 90.3467C39.1838 90.4338 38.9223 90.4774 38.6172 90.5209H38.5736C38.8787 90.4338 39.1838 90.3902 39.4453 90.3467Z" fill="white"/>
<path d="M47.6395 88.6045C47.6395 88.6045 47.6395 88.953 47.6831 89.0837C47.6395 88.953 47.5959 88.8223 47.5959 88.7352V88.6045H47.6395Z" fill="white"/>
<path d="M13.5989 18.7744L12.9015 19.0358V18.9487L13.5989 18.7744Z" fill="white"/>
<path d="M16.6499 29.6217C16.3012 25.222 15.7782 21.5192 14.9937 18.3828C15.2988 19.4283 15.5603 20.4738 15.7346 21.4757C15.9525 22.5212 16.1269 23.5666 16.2576 24.5685C16.3884 25.5705 16.4756 26.5724 16.5627 27.5307C16.6063 28.2713 16.6499 28.9683 16.6499 29.6217Z" fill="white"/>
<path d="M41.4938 60.2891L41.058 60.4633C41.058 60.4633 41.3631 60.3326 41.4938 60.2891Z" fill="white"/>
<path d="M12.2912 49.5295C12.2912 49.5295 12.2041 49.6166 12.1605 49.6166C9.02229 51.2719 5.79694 53.2758 3.61764 56.1508C3.35612 56.4557 3.13819 56.7607 2.92026 57.1092C2.70234 57.4577 2.48441 57.8062 2.31006 58.1546C2.1793 58.3725 2.04855 58.5467 1.96137 58.7645C1.8742 58.5031 1.78703 58.1982 1.69986 57.8933C-2.31005 43.7358 0.740968 28.7506 9.85043 17.2939C9.85043 17.3375 9.85043 17.3811 9.85043 17.4246C9.89401 17.5989 10.0248 17.7296 10.0684 17.9038C10.1991 18.1216 10.2427 18.4265 10.3299 18.6444C12.1169 23.9153 12.2912 29.6219 12.3784 35.1542C12.422 37.5065 12.4656 39.8588 12.3784 42.2111C12.2912 44.5634 12.1605 46.9593 12.2041 49.3552C12.2041 49.3988 12.2041 49.4859 12.2041 49.5295H12.2912Z" fill="#D83941"/>
<path d="M16.5627 27.5307C16.4756 26.5724 16.3884 25.5705 16.2576 24.5685C16.1269 23.5666 15.9525 22.5212 15.7346 21.4757C15.5603 20.4738 15.2988 19.4283 14.9937 18.3828C15.7782 21.5192 16.3012 25.222 16.6499 29.6217C16.6935 29.7088 16.6935 29.8395 16.6935 29.9702C16.6499 29.1861 16.6063 28.3584 16.5627 27.5307ZM16.5627 27.5307C16.4756 26.5724 16.3884 25.5705 16.2576 24.5685C16.1269 23.5666 15.9525 22.5212 15.7346 21.4757C15.5603 20.4738 15.2988 19.4283 14.9937 18.3828C15.7782 21.5192 16.3012 25.222 16.6499 29.6217C16.6935 29.7088 16.6935 29.8395 16.6935 29.9702C16.6499 29.1861 16.6063 28.3584 16.5627 27.5307ZM16.5627 27.5307C16.4756 26.5724 16.3884 25.5705 16.2576 24.5685C16.1269 23.5666 15.9525 22.5212 15.7346 21.4757C15.5603 20.4738 15.2988 19.4283 14.9937 18.3828C15.7782 21.5192 16.3012 25.222 16.6499 29.6217C16.6935 29.7088 16.6935 29.8395 16.6935 29.9702C16.6499 29.1861 16.6063 28.3584 16.5627 27.5307Z" fill="white"/>
<path d="M54.4825 42.516C51.8673 48.6582 46.3319 53.842 39.7504 56.2814H39.7068C32.6895 58.808 24.9748 57.3269 19.6137 52.448C19.3958 52.2738 18.4369 51.1847 17.6523 50.3571C17.3908 50.0957 17.1729 49.8343 16.9986 49.6165C16.9986 49.6165 16.9986 49.6165 16.9986 49.573C16.955 49.4858 16.955 49.3987 16.955 49.3116C16.8678 49.0502 16.7806 48.7453 16.7806 48.4404C16.6935 47.7869 16.6935 47.0028 16.7806 46.088C17.0857 41.5141 16.9986 36.9401 16.8678 32.6711L16.7806 30.3188V29.9703C16.7806 29.9703 16.7806 29.7089 16.737 29.6218C16.3884 25.2221 15.8653 21.5193 15.0808 18.3829C15.0372 18.3393 15.0372 18.2958 15.0372 18.2522L14.9064 17.773C14.6449 16.9454 14.2962 16.1613 13.904 15.4207C13.686 14.898 13.3809 14.4188 13.0758 13.9832C13.0758 13.9396 13.0322 13.8525 12.9886 13.8089C16.3012 10.4112 20.0932 7.53609 24.321 5.31445C24.844 6.49061 25.585 7.66677 26.7618 8.84294C27.4592 9.49636 28.2437 10.1933 29.2462 10.8468C29.5513 11.0646 29.9 11.2824 30.2923 11.5002C31.3819 12.11 32.6459 12.7199 34.0842 13.2862C34.4329 13.4169 34.738 13.5476 35.0867 13.6783C36.7866 14.2446 38.7479 14.7673 40.9708 15.2465L42.5399 15.5514L48.9035 17.0761C49.9495 17.381 50.9956 17.7295 51.9545 18.2087C52.4339 18.4265 52.9134 18.6878 53.3056 18.9492C53.6979 19.167 54.0902 19.4284 54.3953 19.7333C54.3953 19.7333 54.4243 19.7478 54.4825 19.7769C55.4849 23.0876 56.1387 26.9645 56.4002 30.9722C56.6618 35.1105 56.0516 39.1182 54.5696 42.516H54.4825Z" fill="#4BB239"/>
<path d="M87.4334 62.7723C87.2155 63.7307 86.8668 64.6455 86.6489 65.1682C85.5156 68.0433 83.685 70.7005 81.8108 73.14C79.9366 75.5794 77.7138 77.9753 75.3165 80.0662C75.0114 80.3276 74.7063 80.589 74.4012 80.8503C69.6068 84.7273 63.9842 87.6895 58.0129 89.3448C55.2234 90.1289 52.3903 90.4774 49.5137 90.9131C49.2521 90.9131 48.947 91.0002 48.6855 90.9131C46.9857 90.521 47.8574 87.6459 48.2497 86.644C50.3418 81.0681 53.48 75.7101 57.8386 71.5717C58.6667 70.7441 59.5384 69.96 60.4537 69.2194C60.4973 69.1323 60.5409 69.1323 60.5845 69.0887C61.4562 68.3917 62.3715 67.6948 63.3304 67.0413C64.3329 66.3879 65.3789 65.7345 66.425 65.1246C68.1684 64.0356 69.9555 63.2079 71.6989 62.5109C75.9267 60.812 80.1982 59.723 84.6439 58.8953C85.167 58.8082 85.69 58.6775 86.213 58.8082C87.8693 59.2003 87.8257 61.0734 87.477 62.7723H87.4334Z" fill="#5F38D6"/>
<path d="M81.6801 59.4612C83.1185 59.1999 84.644 58.9385 86.2567 58.7207C85.3413 58.8078 83.7287 59.0256 81.6801 59.4612ZM66.425 65.1678C68.0813 64.2095 69.8248 63.3382 71.699 62.5541C69.9555 63.2511 68.1685 64.0788 66.425 65.1678ZM81.6801 59.4612C83.1185 59.1999 84.644 58.9385 86.2567 58.7207C85.3413 58.8078 83.7287 59.0256 81.6801 59.4612ZM66.425 65.1678C68.0813 64.2095 69.8248 63.3382 71.699 62.5541C69.9555 63.2511 68.1685 64.0788 66.425 65.1678ZM81.6801 59.4612C83.1185 59.1999 84.644 58.9385 86.2567 58.7207C85.3413 58.8078 83.7287 59.0256 81.6801 59.4612ZM66.425 65.1678C68.0813 64.2095 69.8248 63.3382 71.699 62.5541C69.9555 63.2511 68.1685 64.0788 66.425 65.1678ZM81.6801 59.4612C83.1185 59.1999 84.644 58.9385 86.2567 58.7207C85.3413 58.8078 83.7287 59.0256 81.6801 59.4612ZM66.425 65.1678C68.0813 64.2095 69.8248 63.3382 71.699 62.5541C69.9555 63.2511 68.1685 64.0788 66.425 65.1678ZM81.6801 59.4612C83.1185 59.1999 84.644 58.9385 86.2567 58.7207C85.3413 58.8078 83.7287 59.0256 81.6801 59.4612ZM66.425 65.1678C68.0813 64.2095 69.8248 63.3382 71.699 62.5541C69.9555 63.2511 68.1685 64.0788 66.425 65.1678ZM81.6801 59.4612C83.1185 59.1999 84.644 58.9385 86.2567 58.7207C85.3413 58.8078 83.7287 59.0256 81.6801 59.4612ZM66.425 65.1678C68.0813 64.2095 69.8248 63.3382 71.699 62.5541C69.9555 63.2511 68.1685 64.0788 66.425 65.1678ZM81.6801 59.4612C83.1185 59.1999 84.644 58.9385 86.2567 58.7207C85.3413 58.8078 83.7287 59.0256 81.6801 59.4612ZM66.425 65.1678C68.0813 64.2095 69.8248 63.3382 71.699 62.5541C69.9555 63.2511 68.1685 64.0788 66.425 65.1678ZM81.6801 59.4612C83.1185 59.1999 84.644 58.9385 86.2567 58.7207C85.3413 58.8078 83.7287 59.0256 81.6801 59.4612ZM66.425 65.1678C68.0813 64.2095 69.8248 63.3382 71.699 62.5541C69.9555 63.2511 68.1685 64.0788 66.425 65.1678ZM81.6801 59.4612C83.1185 59.1999 84.644 58.9385 86.2567 58.7207C85.3413 58.8078 83.7287 59.0256 81.6801 59.4612ZM66.425 65.1678C68.0813 64.2095 69.8248 63.3382 71.699 62.5541C69.9555 63.2511 68.1685 64.0788 66.425 65.1678ZM81.6801 59.4612C83.1185 59.1999 84.644 58.9385 86.2567 58.7207C85.3413 58.8078 83.7287 59.0256 81.6801 59.4612ZM66.425 65.1678C68.0813 64.2095 69.8248 63.3382 71.699 62.5541C69.9555 63.2511 68.1685 64.0788 66.425 65.1678ZM81.6801 59.4612C83.1185 59.1999 84.644 58.9385 86.2567 58.7207C85.3413 58.8078 83.7287 59.0256 81.6801 59.4612ZM66.425 65.1678C68.0813 64.2095 69.8248 63.3382 71.699 62.5541C69.9555 63.2511 68.1685 64.0788 66.425 65.1678ZM81.6801 59.4612C83.1185 59.1999 84.644 58.9385 86.2567 58.7207C85.3413 58.8078 83.7287 59.0256 81.6801 59.4612ZM66.425 65.1678C68.0813 64.2095 69.8248 63.3382 71.699 62.5541C69.9555 63.2511 68.1685 64.0788 66.425 65.1678ZM81.6801 59.4612C83.1185 59.1999 84.644 58.9385 86.2567 58.7207C85.3413 58.8078 83.7287 59.0256 81.6801 59.4612ZM66.425 65.1678C68.0813 64.2095 69.8248 63.3382 71.699 62.5541C69.9555 63.2511 68.1685 64.0788 66.425 65.1678ZM81.6801 59.4612C83.1185 59.1999 84.644 58.9385 86.2567 58.7207C85.3413 58.8078 83.7287 59.0256 81.6801 59.4612ZM66.425 65.1678C68.0813 64.2095 69.8248 63.3382 71.699 62.5541C69.9555 63.2511 68.1685 64.0788 66.425 65.1678ZM81.6801 59.4612C83.1185 59.1999 84.644 58.9385 86.2567 58.7207C85.3413 58.8078 83.7287 59.0256 81.6801 59.4612ZM66.425 65.1678C68.0813 64.2095 69.8248 63.3382 71.699 62.5541C69.9555 63.2511 68.1685 64.0788 66.425 65.1678ZM66.425 65.1678C68.0813 64.2095 69.8248 63.3382 71.699 62.5541C69.9555 63.2511 68.1685 64.0788 66.425 65.1678ZM81.6801 59.4612C83.1185 59.1999 84.644 58.9385 86.2567 58.7207C85.3413 58.8078 83.7287 59.0256 81.6801 59.4612ZM66.425 65.1678C68.0813 64.2095 69.8248 63.3382 71.699 62.5541C69.9555 63.2511 68.1685 64.0788 66.425 65.1678ZM81.6801 59.4612C83.1185 59.1999 84.644 58.9385 86.2567 58.7207C85.3413 58.8078 83.7287 59.0256 81.6801 59.4612ZM66.425 65.1678C68.0813 64.2095 69.8248 63.3382 71.699 62.5541C69.9555 63.2511 68.1685 64.0788 66.425 65.1678ZM81.6801 59.4612C83.1185 59.1999 84.644 58.9385 86.2567 58.7207C85.3413 58.8078 83.7287 59.0256 81.6801 59.4612ZM66.425 65.1678C68.0813 64.2095 69.8248 63.3382 71.699 62.5541C69.9555 63.2511 68.1685 64.0788 66.425 65.1678ZM81.6801 59.4612C83.1185 59.1999 84.644 58.9385 86.2567 58.7207C85.3413 58.8078 83.7287 59.0256 81.6801 59.4612ZM66.425 65.1678C68.0813 64.2095 69.8248 63.3382 71.699 62.5541C69.9555 63.2511 68.1685 64.0788 66.425 65.1678ZM81.6801 59.4612C83.1185 59.1999 84.644 58.9385 86.2567 58.7207C85.3413 58.8078 83.7287 59.0256 81.6801 59.4612ZM66.425 65.1678C68.0813 64.2095 69.8248 63.3382 71.699 62.5541C69.9555 63.2511 68.1685 64.0788 66.425 65.1678ZM81.6801 59.4612C83.1185 59.1999 84.644 58.9385 86.2567 58.7207C85.3413 58.8078 83.7287 59.0256 81.6801 59.4612ZM66.425 65.1678C68.0813 64.2095 69.8248 63.3382 71.699 62.5541C69.9555 63.2511 68.1685 64.0788 66.425 65.1678ZM81.6801 59.4612C83.1185 59.1999 84.644 58.9385 86.2567 58.7207C85.3413 58.8078 83.7287 59.0256 81.6801 59.4612ZM66.425 65.1678C68.0813 64.2095 69.8248 63.3382 71.699 62.5541C69.9555 63.2511 68.1685 64.0788 66.425 65.1678ZM81.6801 59.4612C83.1185 59.1999 84.644 58.9385 86.2567 58.7207C85.3413 58.8078 83.7287 59.0256 81.6801 59.4612ZM66.425 65.1678C68.0813 64.2095 69.8248 63.3382 71.699 62.5541C69.9555 63.2511 68.1685 64.0788 66.425 65.1678ZM81.6801 59.4612C83.1185 59.1999 84.644 58.9385 86.2567 58.7207C85.3413 58.8078 83.7287 59.0256 81.6801 59.4612ZM66.425 65.1678C68.0813 64.2095 69.8248 63.3382 71.699 62.5541C69.9555 63.2511 68.1685 64.0788 66.425 65.1678ZM81.6801 59.4612C83.1185 59.1999 84.644 58.9385 86.2567 58.7207C85.3413 58.8078 83.7287 59.0256 81.6801 59.4612ZM66.425 65.1678C68.0813 64.2095 69.8248 63.3382 71.699 62.5541C69.9555 63.2511 68.1685 64.0788 66.425 65.1678ZM81.6801 59.4612C83.1185 59.1999 84.644 58.9385 86.2567 58.7207C85.3413 58.8078 83.7287 59.0256 81.6801 59.4612ZM66.425 65.1678C68.0813 64.2095 69.8248 63.3382 71.699 62.5541C69.9555 63.2511 68.1685 64.0788 66.425 65.1678ZM81.6801 59.4612C83.1185 59.1999 84.644 58.9385 86.2567 58.7207C85.3413 58.8078 83.7287 59.0256 81.6801 59.4612ZM66.425 65.1678C68.0813 64.2095 69.8248 63.3382 71.699 62.5541C69.9555 63.2511 68.1685 64.0788 66.425 65.1678ZM81.6801 59.4612C83.1185 59.1999 84.644 58.9385 86.2567 58.7207C85.3413 58.8078 83.7287 59.0256 81.6801 59.4612Z" fill="white"/>
<path d="M87.7579 40.0895C87.7579 42.4854 87.4963 44.8813 87.1041 47.2336C86.799 49.0196 86.3631 50.8056 85.9272 52.5481C85.8416 52.8333 85.7747 53.1184 85.702 53.3914C85.6274 53.6716 85.6093 53.9984 85.4042 54.2035C85.2245 54.383 84.93 54.3613 84.6767 54.3805C84.321 54.4074 83.9592 54.4006 83.5736 54.4648C83.0506 54.5084 82.5275 54.6391 82.0045 54.7262C81.0003 54.9353 80.0362 55.1845 79.0352 55.4739C78.9521 55.4979 78.8684 55.5051 78.7825 55.5153C78.6921 55.5261 78.6025 55.5604 78.5136 55.5805C78.3087 55.6268 78.1228 55.6922 77.9074 55.7281C75.5538 56.338 73.2873 57.035 71.0209 57.9062C66.5751 59.6486 62.3908 61.9138 58.5989 64.8325C56.1145 66.7056 53.9352 68.8401 51.8866 71.1924C49.6202 73.8061 47.6152 76.8119 45.9154 80.2968C45.6102 80.9938 45.2616 81.6472 45 82.3442C44.4407 83.6773 43.9238 85.0529 43.4494 86.5128C43.4372 86.5504 43.431 86.5766 43.431 86.6162C43.431 86.6909 43.4075 86.7764 43.3725 86.8424C43.3193 86.9425 43.2785 87.0487 43.213 87.1795C43.1259 87.3102 43.0387 87.4844 42.9515 87.6587C42.6068 88.1945 42.0939 88.7977 41.3241 89.2907C41.1067 89.43 40.9062 89.5699 40.6752 89.6851C40.3578 89.8434 40.0105 89.9825 39.6744 90.0956C39.524 90.1462 39.3685 90.1875 39.2031 90.2288C38.9416 90.2724 38.6365 90.3159 38.2442 90.3595C36.1957 90.3595 33.7985 89.4883 31.8807 88.8784C29.7886 88.225 27.6964 87.3973 25.6915 86.439C21.7252 84.5223 18.0639 82.0828 14.795 79.1206C12.3106 76.899 10.0877 74.416 8.16993 71.7152C6.07781 68.753 4.33437 65.7472 5.24967 62.001C5.94705 59.0823 7.99559 57.2092 10.3056 55.5103C10.8723 55.1182 11.4389 54.7697 12.0927 54.3777C12.7029 54.0292 13.3131 53.6371 13.9669 53.3758C14.3155 53.2015 14.4027 53.3758 14.6206 53.6807C14.8386 53.9856 15.1001 54.247 15.3616 54.5084C16.6256 55.8588 18.1511 57.0349 19.7202 58.0369C23.948 60.7377 29.0476 61.9574 34.06 61.696C38.5929 61.4347 43.1259 59.7358 46.9614 57.2963C50.9277 54.7697 54.5018 51.1541 56.8118 47.0158C59.2526 42.6161 60.5602 37.563 60.4731 32.5098C60.4731 30.0704 60.2551 27.6745 59.8629 25.2786C59.7321 24.2767 59.4706 23.3183 59.2526 22.3164C59.1219 21.8372 59.0347 21.3145 58.904 20.8353C58.8702 20.6326 58.8101 20.4561 58.7646 20.2652C58.7377 20.1526 58.7255 20.0364 58.6932 19.9252C58.6559 19.7964 58.6053 19.6361 58.621 19.5157C58.6275 19.465 58.6428 19.4129 58.6857 19.3851C58.735 19.3531 58.7999 19.3385 58.8506 19.3088C60.5286 18.3273 62.3321 17.5154 64.1779 16.9148C66.0521 16.3485 67.9698 16 69.9312 16C71.2388 16 72.5028 16.1307 73.7668 16.3921C78.2561 17.3504 81.4815 20.8789 83.7915 24.6252C86.6682 29.2863 87.8014 34.6443 87.7579 40.0024V40.0895Z" fill="#FFB024"/>
<path d="M37.1353 61.4648C34.215 61.9876 31.2512 61.9876 28.4181 61.4648C29.8564 61.7262 31.3383 61.8569 32.8203 61.8569C34.3022 61.8569 35.6969 61.7262 37.1353 61.5084V61.4648Z" fill="#FFB024"/>
<path d="M39.4453 90.3467C39.1838 90.4338 38.9223 90.4774 38.6172 90.5209H38.5736C38.8787 90.4338 39.1838 90.3902 39.4453 90.3467Z" fill="#FFB024"/>
<path d="M41.4939 60.2891L41.058 60.4633C40.4914 60.6811 39.8812 60.8554 39.3146 60.986C39.9248 60.8118 40.4914 60.6376 41.058 60.4197C41.1888 60.3762 41.3631 60.3326 41.4939 60.2891Z" fill="#FFB024"/>
<path d="M41.058 60.4197C40.4914 60.6376 39.9248 60.8118 39.3146 60.986C39.8812 60.8554 40.4914 60.6811 41.058 60.4633L41.4939 60.2891C41.4939 60.2891 41.1888 60.3762 41.058 60.4197ZM32.8203 61.8137C31.3383 61.8137 29.8564 61.683 28.4181 61.4217C31.2512 61.988 34.215 61.988 37.1353 61.4217C35.6969 61.6395 34.2586 61.7702 32.8203 61.7702V61.8137ZM41.058 60.4197C40.4914 60.6376 39.9248 60.8118 39.3146 60.986C39.8812 60.8554 40.4914 60.6811 41.058 60.4633L41.4939 60.2891C41.4939 60.2891 41.1888 60.3762 41.058 60.4197ZM32.8203 61.8137C31.3383 61.8137 29.8564 61.683 28.4181 61.4217C31.2512 61.988 34.215 61.988 37.1353 61.4217C35.6969 61.6395 34.2586 61.7702 32.8203 61.7702V61.8137ZM41.058 60.4197C40.4914 60.6376 39.9248 60.8118 39.3146 60.986C39.8812 60.8554 40.4914 60.6811 41.058 60.4633L41.4939 60.2891C41.4939 60.2891 41.1888 60.3762 41.058 60.4197ZM32.8203 61.8137C31.3383 61.8137 29.8564 61.683 28.4181 61.4217C31.2512 61.988 34.215 61.988 37.1353 61.4217C35.6969 61.6395 34.2586 61.7702 32.8203 61.7702V61.8137ZM41.058 60.4197C40.4914 60.6376 39.9248 60.8118 39.3146 60.986C39.8812 60.8554 40.4914 60.6811 41.058 60.4633L41.4939 60.2891C41.4939 60.2891 41.1888 60.3762 41.058 60.4197ZM32.8203 61.8137C31.3383 61.8137 29.8564 61.683 28.4181 61.4217C31.2512 61.988 34.215 61.988 37.1353 61.4217C35.6969 61.6395 34.2586 61.7702 32.8203 61.7702V61.8137ZM41.058 60.4197C40.4914 60.6376 39.9248 60.8118 39.3146 60.986C39.8812 60.8554 40.4914 60.6811 41.058 60.4633L41.4939 60.2891C41.4939 60.2891 41.1888 60.3762 41.058 60.4197ZM32.8203 61.8137C31.3383 61.8137 29.8564 61.683 28.4181 61.4217C31.2512 61.988 34.215 61.988 37.1353 61.4217C35.6969 61.6395 34.2586 61.7702 32.8203 61.7702V61.8137ZM41.058 60.4197C40.4914 60.6376 39.9248 60.8118 39.3146 60.986C39.8812 60.8554 40.4914 60.6811 41.058 60.4633L41.4939 60.2891C41.4939 60.2891 41.1888 60.3762 41.058 60.4197ZM32.8203 61.8137C31.3383 61.8137 29.8564 61.683 28.4181 61.4217C31.2512 61.988 34.215 61.988 37.1353 61.4217C35.6969 61.6395 34.2586 61.7702 32.8203 61.7702V61.8137ZM32.8203 61.8137C31.3383 61.8137 29.8564 61.683 28.4181 61.4217C31.2512 61.988 34.215 61.988 37.1353 61.4217C35.6969 61.6395 34.2586 61.7702 32.8203 61.7702V61.8137ZM41.058 60.4197C40.4914 60.6376 39.9248 60.8118 39.3146 60.986C39.8812 60.8554 40.4914 60.6811 41.058 60.4633L41.4939 60.2891C41.4939 60.2891 41.1888 60.3762 41.058 60.4197ZM32.8203 61.8137C31.3383 61.8137 29.8564 61.683 28.4181 61.4217C31.2512 61.988 34.215 61.988 37.1353 61.4217C35.6969 61.6395 34.2586 61.7702 32.8203 61.7702V61.8137ZM41.058 60.4197C40.4914 60.6376 39.9248 60.8118 39.3146 60.986C39.8812 60.8554 40.4914 60.6811 41.058 60.4633L41.4939 60.2891C41.4939 60.2891 41.1888 60.3762 41.058 60.4197ZM32.8203 61.8137C31.3383 61.8137 29.8564 61.683 28.4181 61.4217C31.2512 61.988 34.215 61.988 37.1353 61.4217C35.6969 61.6395 34.2586 61.7702 32.8203 61.7702V61.8137ZM41.058 60.4197C40.4914 60.6376 39.9248 60.8118 39.3146 60.986C39.8812 60.8554 40.4914 60.6811 41.058 60.4633L41.4939 60.2891C41.4939 60.2891 41.1888 60.3762 41.058 60.4197ZM32.8203 61.8137C31.3383 61.8137 29.8564 61.683 28.4181 61.4217C31.2512 61.988 34.215 61.988 37.1353 61.4217C35.6969 61.6395 34.2586 61.7702 32.8203 61.7702V61.8137ZM41.058 60.4197C40.4914 60.6376 39.9248 60.8118 39.3146 60.986C39.8812 60.8554 40.4914 60.6811 41.058 60.4633L41.4939 60.2891C41.4939 60.2891 41.1888 60.3762 41.058 60.4197ZM32.8203 61.8137C31.3383 61.8137 29.8564 61.683 28.4181 61.4217C31.2512 61.988 34.215 61.988 37.1353 61.4217C35.6969 61.6395 34.2586 61.7702 32.8203 61.7702V61.8137ZM41.058 60.4197C40.4914 60.6376 39.9248 60.8118 39.3146 60.986C39.8812 60.8554 40.4914 60.6811 41.058 60.4633L41.4939 60.2891C41.4939 60.2891 41.1888 60.3762 41.058 60.4197ZM32.8203 61.8137C31.3383 61.8137 29.8564 61.683 28.4181 61.4217C31.2512 61.988 34.215 61.988 37.1353 61.4217C35.6969 61.6395 34.2586 61.7702 32.8203 61.7702V61.8137ZM41.058 60.4197C40.4914 60.6376 39.9248 60.8118 39.3146 60.986C39.8812 60.8554 40.4914 60.6811 41.058 60.4633L41.4939 60.2891C41.4939 60.2891 41.1888 60.3762 41.058 60.4197Z" fill="#FFB024"/>
</g>
<defs>
<clipPath id="clip0_397_5726">
<rect width="88" height="91" fill="white"/>
</clipPath>
</defs>
</svg>
